#N canvas 1061 508 621 327 12;
#X obj 103 172 freeverb~;
#X obj 192 176 freeverb~;
#X obj 86 50 inlet~;
#X obj 145 53 inlet~;
#X obj 206 51 inlet~;
#X obj 265 51 inlet~;
#X obj 70 228 outlet~;
#X obj 140 226 outlet~;
#X obj 208 225 outlet~;
#X obj 278 225 outlet~;
#X msg 351 49 0.5;
#X msg 442 47 0.9;
#X msg 404 176 0.5;
#X msg 487 168 0.5;
#X msg 442 111 damping \$1;
#X msg 345 81 roomsize \$1;
#X msg 402 205 wet \$1;
#X msg 483 200 dry \$1;
#X connect 0 0 6 0;
#X connect 0 1 7 0;
#X connect 1 0 8 0;
#X connect 1 1 9 0;
#X connect 2 0 0 0;
#X connect 3 0 0 1;
#X connect 4 0 1 0;
#X connect 5 0 1 1;
#X connect 10 0 15 0;
#X connect 11 0 14 0;
#X connect 12 0 16 0;
#X connect 13 0 17 0;
#X connect 14 0 1 0;
#X connect 14 0 0 0;
#X connect 15 0 1 0;
#X connect 15 0 0 0;
#X connect 16 0 0 0;
#X connect 16 0 1 0;
#X connect 17 0 0 0;
#X connect 17 0 1 0;
